<svg width="63" height="71" viewBox="0 0 63 71" fill="none" xmlns="http://www.w3.org/2000/svg">
<path d="M54.4764 45.7329C54.4175 45.4833 54.3664 45.2259 54.2856 44.9978V44.9983C53.972 43.974 53.4389 43.0308 52.7231 42.2345C51.6518 41.0467 50.2178 40.248 48.6457 39.964C48.7628 38.6778 48.8728 37.1932 48.9685 35.5541L49.1445 32.0487L49.2177 30.1524C49.2407 29.7607 49.2407 29.368 49.2177 28.9764L49.1297 28.3294L48.9828 27.6902V27.6907C48.5981 26.3312 47.8302 25.1116 46.7712 24.1785C45.7122 23.245 44.4076 22.6375 43.0131 22.4283C42.1966 22.3442 41.3765 22.3073 40.5558 22.3181C37.6224 22.274 34.5273 22.252 31.4689 22.252C28.4105 22.252 25.3446 22.252 22.382 22.3109H22.3815C21.5614 22.3012 20.7408 22.3381 19.9248 22.4211C18.5271 22.6257 17.2179 23.2301 16.1549 24.1627C15.0923 25.0946 14.3203 26.3147 13.9325 27.6759C13.8184 28.0993 13.7396 28.5325 13.6982 28.9693C13.6741 29.361 13.6741 29.7537 13.6982 30.1453L13.7713 32.0416L13.9473 35.5471C14.0353 37.0757 14.1381 38.4865 14.2405 39.6775C13.1912 39.859 12.192 40.2599 11.307 40.853C9.39884 42.1249 8.15608 44.1837 7.91877 46.468V47.2764V55.2871C7.91877 55.5224 7.91877 55.8161 7.96277 56.0806C8.00676 56.3452 8.0436 56.6174 8.0876 56.8819C8.54751 58.9895 9.8812 60.8016 11.7547 61.8649C12.6561 62.3801 13.6553 62.7005 14.6881 62.8056C14.9449 62.8056 15.1941 62.8056 15.4217 62.8425H17.196L21.5378 62.7764C19.5652 64.7531 17.6067 67.9208 17.4968 69.7069L17.4973 69.7064C17.748 69.9689 18.0283 70.2006 18.3332 70.3974C18.5757 70.5958 18.8418 70.7635 19.1252 70.8973C21.3256 70.0299 24.8239 65.3484 25.3078 62.7175C29.7816 62.6365 33.9256 62.534 37.5998 62.416C37.8346 64.9665 41.5017 69.9858 43.8049 70.8901C44.1297 70.7301 44.4352 70.5327 44.714 70.3021C44.9826 70.1319 45.2292 69.9299 45.4476 69.6992C45.3305 67.7444 43.0273 64.202 40.9005 62.2909C43.0272 62.2099 44.9488 62.1295 46.6503 62.0336V62.0341C47.1409 61.9239 47.4617 61.4512 47.3839 60.9534C47.4039 60.5018 47.0928 60.103 46.6503 60.0127C39.8518 59.6452 29.356 59.3806 17.2035 59.2115H15.1131V59.212C14.5939 59.1443 14.0946 58.969 13.6464 58.6973C12.7281 58.1436 12.0845 57.229 11.8717 56.1766L11.8205 55.7798V46.8648C11.9433 45.7749 12.546 44.7973 13.4632 44.1991C14.3805 43.6009 15.5168 43.4445 16.5609 43.7726C17.605 44.1007 18.4487 44.8789 18.8609 45.895C18.9617 46.1451 19.0303 46.4066 19.0661 46.6737C19.1111 46.9926 19.128 47.315 19.1178 47.6364V50.1649C19.1152 50.7098 19.3347 51.2327 19.7245 51.612C20.1149 51.9919 20.6423 52.1964 21.1861 52.1785C28.3075 52.1785 35.2232 52.1195 41.7219 52.0462H41.7659H41.7653C42.2652 52.0462 42.744 51.8442 43.0935 51.4859C43.4429 51.1281 43.6332 50.6436 43.6209 50.1428V47.2034C43.6071 46.1473 44.0184 45.1307 44.7623 44.3823C45.5056 43.6343 46.5186 43.2181 47.5719 43.2273C48.6258 43.2365 49.6311 43.6712 50.3612 44.4325C50.775 44.8498 51.0948 45.3512 51.2999 45.9023L51.4248 46.3211L51.5056 46.7471V47.7903L51.6228 52.3247L51.6888 54.4487V55.4335V55.4345C51.6893 55.6806 51.6724 55.9261 51.6376 56.1696C51.4734 57.137 51.0027 58.026 50.2952 58.7046C49.6531 59.3198 48.8489 59.7381 47.9777 59.9104C47.5515 60.0995 47.3029 60.5501 47.3689 61.0126C47.3669 61.2412 47.4579 61.4606 47.6216 61.6206C47.7848 61.78 48.0064 61.8656 48.2345 61.8579C49.5289 61.7446 50.7613 61.2509 51.7768 60.4394C52.9632 59.511 53.8109 58.217 54.19 56.757C54.279 56.3581 54.3353 55.9526 54.3583 55.5446C54.3583 55.1329 54.3583 54.8094 54.4023 54.4788L54.4683 52.3548L54.5855 47.8204V46.4901C54.5492 46.2624 54.5123 46.0051 54.476 45.7329L54.4764 45.7329ZM43.3211 40.993C42.2907 41.6605 41.4379 42.5684 40.8348 43.6387C40.2311 44.7461 39.9083 45.9851 39.896 47.2473V48.2613C34.5344 48.21 28.9387 48.1731 23.1963 48.1582V47.6364C23.2086 47.1155 23.1789 46.5947 23.1083 46.0784C23.028 45.5094 22.8801 44.9516 22.6678 44.4175C21.8242 42.2372 20.0383 40.5583 17.8128 39.854C17.3939 39.7253 16.9646 39.6345 16.5293 39.5817C16.6367 38.3765 16.7344 37.017 16.8224 35.5031L16.9984 31.9977L17.0716 30.1014H17.0721C17.0777 29.843 17.0997 29.5852 17.1381 29.3294C17.178 29.1053 17.2342 28.8839 17.3069 28.668C17.6307 27.7934 18.262 27.0671 19.0816 26.6252C19.5078 26.4017 19.9739 26.2643 20.4533 26.2207C20.8201 26.1766 21.678 26.2207 22.3968 26.2207C25.3302 26.2648 28.4254 26.2797 31.4838 26.2797C34.5421 26.2797 37.6081 26.2797 40.5707 26.2135C41.3043 26.2135 42.1474 26.1694 42.5143 26.2135H42.5148C42.9875 26.2643 43.4459 26.4063 43.8644 26.6324C44.6916 27.0809 45.326 27.8186 45.6462 28.705L45.749 29.0357L45.815 29.3735C45.8529 29.6319 45.8749 29.8918 45.881 30.1527L45.9542 32.049L46.123 35.5472C46.2182 37.1641 46.321 38.619 46.4382 39.8832C45.33 40.0165 44.2654 40.3958 43.3215 40.9931L43.3211 40.993Z" fill="#2C314B"/>
<path d="M50.4714 15.2266C50.5666 11.2653 50.6474 6.92933 50.6986 1.99781H50.6991C50.7047 1.49849 50.5123 1.01762 50.1645 0.660756C49.8166 0.303894 49.3413 0.0999244 48.8435 0.0942812H48.8067L41.4065 0.02046C40.8877 0.0168714 40.3889 0.219876 40.0201 0.585399C39.6512 0.950922 39.443 1.44869 39.4409 1.96851V5.7975L32.7007 0.439856C32.3487 0.155333 31.9098 0 31.4575 0C31.0053 0 30.5663 0.155333 30.2143 0.439856C17.7903 10.6185 6.18045 20.4523 0.144146 26.089C-0.112668 26.3314 -0.0170094 26.8825 0.356969 27.3014C0.730947 27.7202 1.14892 27.8381 1.40573 27.6541C7.91876 23.068 19.3745 14.2048 31.4537 4.57723L40.1446 11.603C40.541 11.9204 41.0419 12.0757 41.5479 12.0378C42.0533 12.0003 42.526 11.7722 42.8713 11.4C43.2161 11.0279 43.408 10.5383 43.4085 10.0302V3.97421H46.9436C47.0024 8.38406 47.0755 12.3816 47.1707 16.0199V16.108C47.1845 16.5786 47.4081 17.018 47.7795 17.3061C53.647 21.9066 58.2599 25.3906 61.5822 27.698C61.861 27.8964 62.367 27.698 62.6969 27.2423C63.0269 26.7865 63.0418 26.3826 62.8218 26.1693C59.9563 23.4646 55.8396 19.8171 50.4709 15.2263L50.4714 15.2266Z" fill="#2C314B"/>
</svg>
