<svg width="15" height="15" viewBox="0 0 15 15" fill="none" xmlns="http://www.w3.org/2000/svg">
<g id="Group">
<path id="Vector" fill-rule="evenodd" clip-rule="evenodd" d="M7.14135 0.850634C7.00533 0.856431 6.88734 0.946352 6.84547 1.07617L5.31351 5.83402L0.325857 5.82413C0.184731 5.8239 0.0594883 5.91496 0.0159225 6.04944C-0.0276403 6.18392 0.0202335 6.33125 0.134471 6.41423L4.17594 9.34477L2.62411 14.0977L2.62423 14.0976C2.58033 14.232 2.62797 14.3794 2.74221 14.4626C2.85634 14.5457 3.01096 14.5456 3.12498 14.4622L7.15512 11.5151L11.1867 14.4622V14.4621C11.3007 14.5455 11.4554 14.5456 11.5696 14.4625C11.6837 14.3793 11.7314 14.2318 11.6875 14.0974L10.1356 9.34455L14.1771 6.414L14.1772 6.41411C14.2916 6.33113 14.3395 6.1838 14.2959 6.04921C14.2522 5.91473 14.1271 5.82367 13.9858 5.82401L8.99819 5.8339L7.46452 1.07606C7.41959 0.936685 7.28743 0.844493 7.14143 0.850631L7.14135 0.850634Z" fill="#F5CC26"/>
</g>
</svg>
