<svg width="14" height="15" viewBox="0 0 14 15" fill="none" xmlns="http://www.w3.org/2000/svg">
<g id="Group">
<path id="Vector" d="M13.4927 14.7233H0.248332C0.111158 14.7233 0 14.6119 0 14.4744V13.8108C0 10.0148 3.08211 6.92627 6.87041 6.92627C10.6587 6.92627 13.7408 10.0147 13.7408 13.8108V14.4744C13.7408 14.6119 13.6297 14.7233 13.4925 14.7233H13.4927ZM0.496569 14.2256H13.2444V13.8108C13.2444 10.2891 10.3851 7.42375 6.87051 7.42375C3.35591 7.42375 0.496569 10.289 0.496569 13.8108V14.2256Z" fill="#9A6437"/>
<path id="Vector_2" d="M6.87055 7.38238C4.83939 7.38238 3.18695 5.72653 3.18695 3.69119C3.18695 1.65585 4.83939 0 6.87055 0C8.9017 0 10.5541 1.65585 10.5541 3.69119C10.5541 5.72653 8.9017 7.38238 6.87055 7.38238ZM6.87055 0.497801C5.11329 0.497801 3.68361 1.93042 3.68361 3.6913C3.68361 5.45219 5.11329 6.8848 6.87055 6.8848C8.62781 6.8848 10.0575 5.45219 10.0575 3.6913C10.0575 1.93042 8.62781 0.497801 6.87055 0.497801Z" fill="#9A6437"/>
</g>
</svg>
